<svg xmlns="http://www.w3.org/2000/svg" xmlns:xlink="http://www.w3.org/1999/xlink" width="841" height="545" viewBox="0 0 841 545">
  <defs>
    <clipPath id="clip-Logo-on-scroll2">
      <rect width="841" height="545"/>
    </clipPath>
  </defs>
  <g id="Logo-on-scroll2" clip-path="url(#clip-Logo-on-scroll2)">
    <g id="Group_5" data-name="Group 5" transform="translate(11.858 41.213)">
      <g id="Group_2" data-name="Group 2">
        <g id="Group_7" data-name="Group 7">
          <path id="Path_6" data-name="Path 6" d="M227.836,78.279v147.9s-9.776,52.958,101.879,52.958H583.908S305.987,269.767,227.836,78.279" fill="#484848" fill-rule="evenodd"/>
          <path id="Path_7" data-name="Path 7" d="M270.1,0s-1.85,103.68,60.211,166.87c62.081,63.239,241.884,109.621,253.6,112.264Z" fill="#484848" fill-rule="evenodd"/>
          <path id="Path_8" data-name="Path 8" d="M583.976,279.133,427.012,100.31s154.441-8.921,159.873,99.48Z" fill="#484848" fill-rule="evenodd"/>
          <path id="Path_9" data-name="Path 9" d="M54.171,317.065c-6.354.619-6.958,1.02-6.958,7.506v30.784c0,6.487.681,6.76,6.958,7.429v2.293H32.859v-2.293c6.367-.774,6.959-.942,6.959-7.429V340.042H14.353v15.313c0,6.423.633,6.683,6.882,7.429v2.293H0v-2.293c6.171-.683,6.9-.942,6.9-7.429V324.571c0-6.486-.7-6.914-6.9-7.506v-2.292H21.235v2.292c-6.136.542-6.882,1.083-6.882,7.506v12.082H39.818V324.571c0-6.423-.837-6.951-6.959-7.506v-2.292H54.171Z" fill="#484848"/>
          <path id="Path_10" data-name="Path 10" d="M75.533,330.1c9.9,0,17.038,7.507,17.038,17.366,0,12.524-9.231,18.538-17.094,18.538a17.109,17.109,0,0,1-17.391-17.37c0-12.476,9.816-18.534,17.447-18.534m-.929,2.716c-4.471,0-8.546,4.37-8.546,13.446,0,9.788,4.126,16.949,10.207,16.949,4.463,0,8.335-3.217,8.335-13.947,0-9.36-3.547-16.448-10-16.448" fill="#484848"/>
          <path id="Path_11" data-name="Path 11" d="M113.377,365.026a7.911,7.911,0,0,1-3.286.979c-5.134,0-7.932-2.978-7.932-9.321V334.329H96.888l-.337-.929,2.117-2.37h3.491v-6.485c1.679-1.6,4.2-3.7,5.9-5.3l1.134.238c-.142,3.041-.233,7.459-.219,11.549H117.6a2.575,2.575,0,0,1-.493,3.3h-8.135v19.66c0,6.227,2.477,7.3,4.391,7.3a10.848,10.848,0,0,0,4.54-1.154l.711,2.151Z" fill="#484848"/>
          <path id="Path_12" data-name="Path 12" d="M149.367,358.316c-4.912,6.332-10.468,7.689-13.083,7.689-9.61,0-15.365-7.726-15.365-16.68a19.958,19.958,0,0,1,5.17-13.614,16.12,16.12,0,0,1,11.629-5.609,12.182,12.182,0,0,1,12.008,12.107c-.063,1.507-.268,2.315-1.45,2.611-1.534.323-11.621.992-20.525,1.3-.134,9.979,5.892,14.222,11.4,14.222a13.117,13.117,0,0,0,8.949-3.863Zm-13.451-25.23c-3.476,0-6.806,3.383-7.778,9.624,4.126-.014,8.208-.027,12.538-.232,1.337-.014,1.8-.36,1.8-1.548.078-4.061-2.464-7.844-6.561-7.844" fill="#484848"/>
          <path id="Path_13" data-name="Path 13" d="M153.221,365.076v-2.251c4.856-.506,5.392-.892,5.392-5.959V320.129c0-4.594-.4-5.058-5.187-5.719v-2.1a59.353,59.353,0,0,0,12-2.631v47.183c0,5.107.422,5.481,5.341,5.959v2.251Z" fill="#484848"/>
          <path id="Path_14" data-name="Path 14" d="M220.838,326.717c-1.357-5.081-3.524-10.221-10.771-10.221-5.758,0-8,4.187-8,8.268,0,5.144,3.308,7.823,9.8,11.167,9.106,4.673,13.353,8.315,13.353,15.724,0,8.306-7.14,14.582-17.319,14.582a34.213,34.213,0,0,1-12.049-2.527c-.592-2.1-1.59-7.859-2.132-11.943l2.511-.633c1.548,5.131,5.12,12.169,13.085,12.169,5.419,0,8.727-3.7,8.727-8.718,0-5.695-3.1-8.135-9.859-11.809-8.111-4.4-12.8-8.14-12.8-15.49,0-7.111,5.838-13.6,16.305-13.6a50.724,50.724,0,0,1,10.369,1.457c.309,2.8.661,6.062,1.28,11.063Z" fill="#484848"/>
          <path id="Path_15" data-name="Path 15" d="M256.19,366.005a5.909,5.909,0,0,1-3.846-1.5,7.237,7.237,0,0,1-1.886-3.371c-3.067,2.06-6.859,4.869-9.091,4.869a9.614,9.614,0,0,1-9.638-9.6c0-3.847,2.049-6.212,6.277-7.71,4.694-1.641,10.554-3.623,12.27-5.046v-1.88c0-5.231-2.549-8.238-6.449-8.238a4.371,4.371,0,0,0-3.539,1.739c-.865,1.111-1.366,2.786-2.049,5.044a2.316,2.316,0,0,1-2.439,1.933,3.9,3.9,0,0,1-3.613-3.517c0-1.138.991-2.08,2.581-3.191,2.467-1.753,6.97-4.505,11.368-5.434a11.187,11.187,0,0,1,6.764,2.12c2.821,2.321,4,5.064,4,9.073v14.659c0,3.587,1.3,4.643,2.668,4.643a6.086,6.086,0,0,0,2.716-.81l.788,2.251Zm-5.914-19.567c-1.647.838-4.944,2.31-6.682,3.1-2.844,1.3-4.554,2.759-4.554,5.579a5.557,5.557,0,0,0,5.419,5.946,9.2,9.2,0,0,0,5.817-2.509Z" fill="#484848"/>
          <path id="Path_16" data-name="Path 16" d="M288.429,365.076v-2.251c4.266-.465,4.689-.963,4.689-6.239V343.732c0-5.431-2.075-8.721-6.75-8.721-2.965,0-5.746,1.662-8.09,3.718V356.95c0,5.228.437,5.41,4.753,5.875v2.251h-16.94v-2.251c4.912-.569,5.377-.838,5.377-5.93V340.923c0-4.96-.556-5.192-4.6-5.889v-2.1a49.655,49.655,0,0,0,11.434-3.069c-.014,1.655-.029,4.175-.029,6.019,1.548-1.084,3.237-2.245,5.207-3.519a11.645,11.645,0,0,1,6.354-2.267c6.205,0,10.09,4.566,10.09,12.143v14.691c0,5.179.464,5.411,4.813,5.889v2.251Z" fill="#484848"/>
          <path id="Path_17" data-name="Path 17" d="M362.2,326.983a22.9,22.9,0,0,0-2.58-6.005c-1.5-2.464-2.631-3.027-6.854-3.027H344.93c-2.315,0-2.56.218-2.56,2.531v17.7h9.359c5.392,0,5.821-.972,6.982-6.39h2.418v16.357h-2.5c-.978-5.39-1.632-6.642-6.9-6.642H342.37v13.533c0,6.8.718,7.154,7.747,7.746v2.292h-22.1v-2.292c6.2-.478,6.9-1.006,6.9-7.746V324.782c0-6.761-.761-7.126-6.9-7.718v-2.292h24.839c6.91,0,9.764-.077,11.066-.155.078,2.521.4,8.162.788,12.029Z" fill="#484848"/>
          <path id="Path_18" data-name="Path 18" d="M397.683,358.316c-4.911,6.332-10.468,7.689-13.083,7.689-9.61,0-15.365-7.726-15.365-16.68a19.957,19.957,0,0,1,5.17-13.614,16.12,16.12,0,0,1,11.629-5.609,12.182,12.182,0,0,1,12.008,12.107c-.063,1.507-.268,2.315-1.45,2.611-1.534.323-11.621.992-20.525,1.3-.134,9.979,5.892,14.222,11.4,14.222a13.117,13.117,0,0,0,8.949-3.863Zm-13.451-25.23c-3.476,0-6.806,3.383-7.778,9.624,4.126-.014,8.208-.027,12.538-.232,1.337-.014,1.8-.36,1.8-1.548.078-4.061-2.464-7.844-6.561-7.844" fill="#484848"/>
          <path id="Path_19" data-name="Path 19" d="M420.916,365.076H402.641v-2.251c4.737-.465,5.188-.852,5.188-5.811v-16.25c0-4.888-.31-5.147-4.646-5.73v-2.019a47.706,47.706,0,0,0,11.457-3.13v8.484c2.848-4.261,6.014-8.267,9.759-8.267,2.863,0,4.586,1.809,4.586,3.883a5.627,5.627,0,0,1-2.868,4.673,1.633,1.633,0,0,1-2.083-.2c-1.188-1.147-2.13-2.005-3.51-2.005-1.541,0-4.238,2.149-5.884,5.916V356.95c0,5.023.415,5.383,6.276,5.875Z" fill="#484848"/>
          <path id="Path_20" data-name="Path 20" d="M454.181,365.076v-2.251c4.266-.465,4.687-.963,4.687-6.239V343.732c0-5.431-2.074-8.721-6.749-8.721-2.964,0-5.745,1.662-8.09,3.718V356.95c0,5.228.437,5.41,4.753,5.875v2.251h-16.94v-2.251c4.912-.569,5.376-.838,5.376-5.93V340.923c0-4.96-.555-5.192-4.6-5.889v-2.1a49.619,49.619,0,0,0,11.433-3.069c-.013,1.655-.027,4.175-.027,6.019,1.548-1.084,3.237-2.245,5.208-3.519a11.639,11.639,0,0,1,6.353-2.267c6.205,0,10.088,4.566,10.088,12.143v14.691c0,5.179.465,5.411,4.815,5.889v2.251Z" fill="#484848"/>
          <path id="Path_21" data-name="Path 21" d="M499.863,366.005a5.913,5.913,0,0,1-3.847-1.5,7.235,7.235,0,0,1-1.885-3.371c-3.068,2.06-6.86,4.869-9.091,4.869a9.614,9.614,0,0,1-9.638-9.6c0-3.847,2.049-6.212,6.278-7.71,4.691-1.641,10.553-3.623,12.269-5.046v-1.88c0-5.231-2.549-8.238-6.449-8.238a4.371,4.371,0,0,0-3.539,1.739c-.865,1.111-1.366,2.786-2.049,5.044a2.316,2.316,0,0,1-2.438,1.933,3.9,3.9,0,0,1-3.614-3.517c0-1.138.992-2.08,2.581-3.191,2.467-1.753,6.97-4.505,11.368-5.434a11.194,11.194,0,0,1,6.765,2.12c2.82,2.321,4,5.064,4,9.073v14.659c0,3.587,1.3,4.643,2.666,4.643a6.09,6.09,0,0,0,2.718-.81l.787,2.251Zm-5.914-19.567c-1.648.838-4.944,2.31-6.683,3.1-2.843,1.3-4.553,2.759-4.553,5.579a5.557,5.557,0,0,0,5.418,5.946,9.2,9.2,0,0,0,5.818-2.509Z" fill="#484848"/>
          <path id="Path_22" data-name="Path 22" d="M532.106,365.076v-2.251c4.266-.465,4.687-.963,4.687-6.239V343.732c0-5.431-2.074-8.721-6.749-8.721-2.964,0-5.745,1.662-8.09,3.718V356.95c0,5.228.437,5.41,4.753,5.875v2.251h-16.94v-2.251c4.912-.569,5.376-.838,5.376-5.93V340.923c0-4.96-.555-5.192-4.6-5.889v-2.1a49.62,49.62,0,0,0,11.433-3.069c-.013,1.655-.027,4.175-.027,6.019,1.548-1.084,3.237-2.245,5.208-3.519a11.639,11.639,0,0,1,6.353-2.267c6.2,0,10.088,4.566,10.088,12.143v14.691c0,5.179.465,5.411,4.814,5.889v2.251Z" fill="#484848"/>
          <path id="Path_23" data-name="Path 23" d="M590.83,363.128a89.848,89.848,0,0,0-12.567,2.891v-4.933c-1.393.865-3.392,1.962-4.785,2.827-2.872,1.669-4.8,2.092-5.708,2.092-6.262,0-14.675-6.093-14.675-17.053,0-10.731,9.428-18.85,20.3-18.85a15.533,15.533,0,0,1,4.873.74V319.914c0-4.8-.514-5-5.884-5.489v-2.11a82.207,82.207,0,0,0,12.708-2.632V355.96c0,4.052.528,4.566,3.405,4.762l2.338.169Zm-12.567-25.99a8.995,8.995,0,0,0-7.707-3.933c-3.478,0-9.806,2.324-9.806,13.482,0,9.5,5.777,14.233,10.463,14.311a12.747,12.747,0,0,0,7.05-2.523Z" fill="#484848"/>
          <path id="Path_24" data-name="Path 24" d="M612.093,330.1c9.9,0,17.04,7.507,17.04,17.366,0,12.524-9.233,18.538-17.095,18.538a17.108,17.108,0,0,1-17.39-17.37c0-12.476,9.815-18.534,17.445-18.534m-.929,2.716c-4.468,0-8.545,4.37-8.545,13.446,0,9.788,4.125,16.949,10.207,16.949,4.463,0,8.335-3.217,8.335-13.947,0-9.36-3.548-16.448-10-16.448" fill="#484848"/>
          <path id="Path_25" data-name="Path 25" d="M673.585,314.772c5.6,0,10.059,1.02,13.232,3.3,3.171,2.3,5.274,5.951,5.274,11.1,0,11.285-9.644,15.879-17.165,15.892a14.586,14.586,0,0,1-2.13-.154l-5.188-1.352v11.8c0,6.5.542,6.683,7.591,7.43v2.292H653.254v-2.292c6.5-.7,6.9-1.12,6.9-7.557V324.711c0-6.817-.838-7.07-6.9-7.647v-2.292Zm-5.977,25.98a13.307,13.307,0,0,0,5.372.965c4.892,0,11.2-2.533,11.2-12.369,0-8.54-5.42-11.847-11.655-11.847-2.133,0-3.633.387-4.1.9-.6.528-.824,1.427-.824,3.35Z" fill="#484848"/>
          <path id="Path_26" data-name="Path 26" d="M695.822,365.076v-2.251c4.855-.506,5.392-.892,5.392-5.959V320.129c0-4.594-.4-5.058-5.187-5.719v-2.1a59.349,59.349,0,0,0,12-2.631v47.183c0,5.107.421,5.481,5.34,5.959v2.251Z" fill="#484848"/>
          <path id="Path_27" data-name="Path 27" d="M742.225,366.005a5.913,5.913,0,0,1-3.847-1.5,7.235,7.235,0,0,1-1.885-3.371c-3.068,2.06-6.861,4.869-9.091,4.869a9.614,9.614,0,0,1-9.638-9.6c0-3.847,2.049-6.212,6.278-7.71,4.691-1.641,10.553-3.623,12.269-5.046v-1.88c0-5.231-2.549-8.238-6.449-8.238a4.371,4.371,0,0,0-3.539,1.739c-.865,1.111-1.366,2.786-2.049,5.044a2.316,2.316,0,0,1-2.438,1.933,3.9,3.9,0,0,1-3.614-3.517c0-1.138.992-2.08,2.581-3.191,2.467-1.753,6.97-4.505,11.367-5.434a11.19,11.19,0,0,1,6.765,2.12c2.821,2.321,4,5.064,4,9.073v14.659c0,3.587,1.3,4.643,2.666,4.643a6.09,6.09,0,0,0,2.718-.81l.787,2.251Zm-5.914-19.567c-1.648.838-4.944,2.31-6.683,3.1-2.843,1.3-4.553,2.759-4.553,5.579a5.557,5.557,0,0,0,5.418,5.946,9.2,9.2,0,0,0,5.818-2.509Z" fill="#484848"/>
          <path id="Path_28" data-name="Path 28" d="M782.118,354.974c-1.1,3.255-2.595,7.723-3.355,10.1H752.438l-.562-1.252c6.678-9.822,13-19.892,19.282-29.93h-6.881c-5.452,0-6.576.753-9.635,7.507l-2.252-.74a114.823,114.823,0,0,0,2.484-11.283h1.73c.478,1.188,1.511,1.652,4.4,1.652H779.48l.521,1.147c-6.087,9.456-12.633,19.745-18.959,30.051h7.683c5.8,0,7.73-1.45,11.3-8.119Z" fill="#484848"/>
          <path id="Path_29" data-name="Path 29" d="M810.4,366.005a5.913,5.913,0,0,1-3.847-1.5,7.235,7.235,0,0,1-1.885-3.371c-3.068,2.06-6.86,4.869-9.091,4.869a9.614,9.614,0,0,1-9.638-9.6c0-3.847,2.049-6.212,6.278-7.71,4.691-1.641,10.553-3.623,12.269-5.046v-1.88c0-5.231-2.549-8.238-6.449-8.238a4.371,4.371,0,0,0-3.539,1.739c-.865,1.111-1.366,2.786-2.049,5.044a2.316,2.316,0,0,1-2.438,1.933,3.9,3.9,0,0,1-3.614-3.517c0-1.138.992-2.08,2.581-3.191,2.467-1.753,6.97-4.505,11.367-5.434a11.2,11.2,0,0,1,6.766,2.12c2.82,2.321,4,5.064,4,9.073v14.659c0,3.587,1.3,4.643,2.666,4.643a6.09,6.09,0,0,0,2.718-.81l.787,2.251Zm-5.914-19.567c-1.648.838-4.944,2.31-6.683,3.1-2.843,1.3-4.553,2.759-4.553,5.579a5.557,5.557,0,0,0,5.418,5.946,9.2,9.2,0,0,0,5.818-2.509Z" fill="#484848"/>
          <path id="Path_30" data-name="Path 30" d="M311.628,458.381v-2.292c6.262-.619,6.523-1.1,6.459-9.142l.05-31.325c-6.207,14.01-15.685,34.806-18.909,42.759h-2.11c-3.063-8.046-11.223-28.089-17.049-42.012-1.26,26.584-1.324,32.461-1.324,34.168.078,4.307,1.943,5.01,7.3,5.552v2.292h-18.5v-2.292c4.475-.451,6.36-1.366,6.979-5.629.437-3.21.556-6.287,2.527-34.048.3-3.97-.437-5.425-7.219-6.044v-2.292h14.051L300.6,446.394l17.743-38.318h14.045v2.292c-6.572.747-7.4,1.43-7.241,6.986l.365,29.593c.268,8.045.515,8.418,7.228,9.142v2.292Z" fill="#484848"/>
          <path id="Path_31" data-name="Path 31" d="M364.723,451.621c-4.911,6.332-10.468,7.689-13.083,7.689-9.61,0-15.365-7.726-15.365-16.68a19.957,19.957,0,0,1,5.17-13.614,16.12,16.12,0,0,1,11.629-5.609,12.182,12.182,0,0,1,12.008,12.107c-.063,1.507-.268,2.315-1.45,2.611-1.534.323-11.621.992-20.525,1.3-.134,9.979,5.892,14.222,11.4,14.222a13.117,13.117,0,0,0,8.949-3.863Zm-13.451-25.23c-3.476,0-6.806,3.382-7.778,9.624,4.126-.014,8.208-.027,12.538-.232,1.337-.014,1.8-.36,1.8-1.548.078-4.061-2.464-7.844-6.561-7.844" fill="#484848"/>
          <path id="Path_32" data-name="Path 32" d="M408.444,456.433a89.879,89.879,0,0,0-12.567,2.891v-4.933c-1.393.865-3.392,1.962-4.785,2.827-2.872,1.669-4.8,2.092-5.71,2.092-6.26,0-14.673-6.093-14.673-17.053,0-10.731,9.428-18.85,20.3-18.85a15.531,15.531,0,0,1,4.872.74V413.216c0-4.8-.514-5-5.883-5.488v-2.11a82.252,82.252,0,0,0,12.707-2.631v46.278c0,4.052.528,4.566,3.4,4.762l2.338.169Zm-12.567-25.99a8.993,8.993,0,0,0-7.708-3.933c-3.479,0-9.8,2.324-9.8,13.482,0,9.5,5.776,14.233,10.464,14.311a12.747,12.747,0,0,0,7.049-2.523Z" fill="#484848"/>
          <path id="Path_33" data-name="Path 33" d="M440.71,451.621c-4.91,6.332-10.466,7.689-13.084,7.689-9.608,0-15.362-7.726-15.362-16.68a19.961,19.961,0,0,1,5.169-13.614,16.118,16.118,0,0,1,11.63-5.609,12.183,12.183,0,0,1,12.007,12.107c-.064,1.507-.269,2.315-1.45,2.611-1.534.323-11.62.992-20.525,1.3-.134,9.979,5.891,14.222,11.4,14.222a13.12,13.12,0,0,0,8.95-3.863Zm-13.45-25.23c-3.476,0-6.806,3.382-7.778,9.624,4.125-.014,8.208-.027,12.538-.232,1.338-.014,1.8-.36,1.8-1.548.078-4.061-2.465-7.844-6.562-7.844" fill="#484848"/>
          <path id="Path_34" data-name="Path 34" d="M444.566,458.381V456.13c4.855-.506,5.392-.892,5.392-5.959V413.434c0-4.6-.4-5.06-5.187-5.72v-2.1a59.2,59.2,0,0,0,12-2.632v47.185c0,5.107.421,5.481,5.34,5.959v2.251Z" fill="#484848"/>
          <path id="Path_35" data-name="Path 35" d="M465.537,458.381V456.13c4.855-.506,5.392-.892,5.392-5.959V413.434c0-4.6-.4-5.06-5.187-5.72v-2.1a59.2,59.2,0,0,0,12-2.632v47.185c0,5.107.421,5.481,5.34,5.959v2.251Z" fill="#484848"/>
          <path id="Path_36" data-name="Path 36" d="M486.995,458.382v-2.251c4.812-.479,5.34-.852,5.34-6.155V434.185c0-4.866-.259-5.176-4.784-5.895v-1.983a55.7,55.7,0,0,0,11.6-3.039v26.708c0,5.262.5,5.676,5.433,6.155v2.251Zm5.1-41.075,8.3-12.631a29.694,29.694,0,0,1,7.878-.437l.218,1.02-14.577,13.327Z" fill="#484848"/>
          <path id="Path_37" data-name="Path 37" d="M530.642,458.381V456.13c4.266-.465,4.687-.963,4.687-6.239V437.037c0-5.431-2.074-8.721-6.749-8.721-2.964,0-5.745,1.662-8.09,3.718v18.221c0,5.228.437,5.41,4.753,5.875v2.251H508.3V456.13c4.912-.569,5.376-.838,5.376-5.93V434.228c0-4.96-.555-5.192-4.6-5.889v-2.1a49.622,49.622,0,0,0,11.433-3.069c-.013,1.655-.027,4.175-.027,6.019,1.548-1.084,3.237-2.245,5.208-3.519a11.639,11.639,0,0,1,6.353-2.267c6.2,0,10.088,4.566,10.088,12.143v14.691c0,5.179.465,5.411,4.814,5.889v2.251Z" fill="#484848"/>
        </g>
      </g>
    </g>
  </g>
</svg>
